HIERARCHY
ROOT joint_Root
{
	OFFSET 0.0 0.0 0.0
	CHANNELS 6 Xposition Yposition Zposition Zrotation Xrotation Yrotation 
	JOINT Hips
	{
		OFFSET -17.1583 93.1646 452.98
		CHANNELS 6 Xposition Yposition Zposition Zrotation Xrotation Yrotation 
		JOINT Spine
		{
			OFFSET 15.7357 0.0 0.0
			CHANNELS 6 Xposition Yposition Zposition Zrotation Xrotation Yrotation 
			JOINT Chest
			{
				OFFSET 8.98455 -0.406207 0.0
				CHANNELS 6 Xposition Yposition Zposition Zrotation Xrotation Yrotation 
				JOINT Neck
				{
					OFFSET 16.3773 0.0 0.0
					CHANNELS 6 Xposition Yposition Zposition Zrotation Xrotation Yrotation 
					JOINT Head
					{
						OFFSET 6.45672 0.0 0.0
						CHANNELS 6 Xposition Yposition Zposition Zrotation Xrotation Yrotation 
						End Site
						{
							OFFSET 0.0 0.0 0.0
						}
					}
				}
				JOINT Shoulder_L
				{
					OFFSET 12.9942 -0.242716 4.98039
					CHANNELS 6 Xposition Yposition Zposition Zrotation Xrotation Yrotation 
					JOINT UpperArm_L
					{
						OFFSET 5.34809 0.0 0.0
						CHANNELS 6 Xposition Yposition Zposition Zrotation Xrotation Yrotation 
						JOINT LowerArm_L
						{
							OFFSET 24.3286 1.87007e-05 0.0
							CHANNELS 6 Xposition Yposition Zposition Zrotation Xrotation Yrotation 
							JOINT Hand_L
							{
								OFFSET 22.2916 0.0 0.0
								CHANNELS 6 Xposition Yposition Zposition Zrotation Xrotation Yrotation 
								End Site
								{
									OFFSET 0.0 0.0 0.0
								}
							}
						}
					}
				}
				JOINT Shoulder_R
				{
					OFFSET 12.9945 -0.242716 -4.98039
					CHANNELS 6 Xposition Yposition Zposition Zrotation Xrotation Yrotation 
					JOINT UpperArm_R
					{
						OFFSET -5.34813 0.0 0.0
						CHANNELS 6 Xposition Yposition Zposition Zrotation Xrotation Yrotation 
						JOINT LowerArm_R
						{
							OFFSET -24.3289 0.000322201 0.0
							CHANNELS 6 Xposition Yposition Zposition Zrotation Xrotation Yrotation 
							JOINT Hand_R
							{
								OFFSET -22.2915 -0.000108084 0.0
								CHANNELS 6 Xposition Yposition Zposition Zrotation Xrotation Yrotation 
								End Site
								{
									OFFSET 0.0 0.0 0.0
								}
							}
						}
					}
				}
			}
		}
		JOINT UpperLeg_L
		{
			OFFSET -2.19248 -6.46944 0.0
			CHANNELS 6 Xposition Yposition Zposition Zrotation Xrotation Yrotation 
			JOINT LowerLeg_L
			{
				OFFSET 39.0811 0.0 -1.23785e-05
				CHANNELS 6 Xposition Yposition Zposition Zrotation Xrotation Yrotation 
				JOINT Foot_L
				{
					OFFSET 40.9854 0.0 -1.26872e-05
					CHANNELS 6 Xposition Yposition Zposition Zrotation Xrotation Yrotation 
					JOINT Toes_L
					{
						OFFSET 11.7543 0.0 0.0
						CHANNELS 6 Xposition Yposition Zposition Zrotation Xrotation Yrotation 
						End Site
						{
							OFFSET 0.0 0.0 0.0
						}
					}
				}
			}
		}
		JOINT UpperLeg_R
		{
			OFFSET -2.19251 6.46944 0.0
			CHANNELS 6 Xposition Yposition Zposition Zrotation Xrotation Yrotation 
			JOINT LowerLeg_R
			{
				OFFSET -39.0811 -0.00228153 -0.0401928
				CHANNELS 6 Xposition Yposition Zposition Zrotation Xrotation Yrotation 
				JOINT Foot_R
				{
					OFFSET -40.9854 0.0 0.0
					CHANNELS 6 Xposition Yposition Zposition Zrotation Xrotation Yrotation 
					JOINT Toes_R
					{
						OFFSET -11.7543 0.0 0.0
						CHANNELS 6 Xposition Yposition Zposition Zrotation Xrotation Yrotation 
						End Site
						{
							OFFSET 0.0 0.0 0.0
						}
					}
				}
			}
		}
	}
}
MOTION
Frames:	4
Frame Time:	0.0333333
0.000000 0.000000 0.000000 0.000000 0.000000 -0.000000 -3.547930 93.118000 0.643524 88.047700 2.671170 0.419929 15.735700 0.000005 -0.000001 51.307200 86.984600 -47.831600 8.984550 -0.406207 -0.000000 -2.928530 -4.092670 6.849830 16.377300 -0.000001 -0.000001 -0.914012 1.957430 -2.412500 6.456720 -0.000001 -0.000000 0.235342 3.467870 -7.117540 12.994200 -0.242716 4.980390 -92.696900 9.137540 -73.478600 5.348090 -0.000007 -0.000001 -76.420000 24.050400 4.726440 24.328600 0.000019 0.000005 11.048000 24.763300 -24.991800 22.291600 -0.000001 0.000005 -2.696250 5.081350 5.537070 12.994500 -0.242716 -4.980390 88.453400 5.015210 -72.837200 -5.348130 -0.000001 -0.000004 -62.048800 25.527000 -10.428300 -24.328900 0.000322 -0.000009 1.911460 8.168020 -13.225100 -22.291500 -0.000108 -0.000004 -11.954500 5.222130 2.156910 -2.192480 -6.469440 -0.000000 -170.383000 -7.050690 0.417723 39.081100 -0.000007 -0.000012 0.009283 -0.044799 11.707900 40.985400 -0.000006 -0.000013 -5.015040 17.998900 -66.497200 11.754300 -0.000000 0.000003 -0.000586 0.176972 -9.398360 -2.192510 6.469440 -0.000001 179.153000 8.092930 -178.529000 -39.081100 -0.002282 -0.040193 0.019605 -0.077416 11.867900 -40.985400 0.000008 0.000006 -4.612370 5.100110 -68.360700 -11.754300 -0.000006 -0.000006 -0.008996 0.263643 -5.864270
0.000000 0.000000 0.000000 0.000000 0.000000 -0.000000 -3.346390 93.200900 0.756396 88.070100 3.053010 -0.318758 15.735700 0.000005 -0.000001 43.896300 87.049200 -40.424500 8.984550 -0.406207 -0.000000 -3.530890 -4.592180 6.807220 16.377300 -0.000001 -0.000001 -1.136150 1.983150 -2.932880 6.456720 -0.000001 -0.000000 0.396387 3.541480 -8.874940 12.994200 -0.242716 4.980390 -92.728000 9.283910 -73.545100 5.348090 -0.000007 -0.000001 -75.778600 24.611900 5.342220 24.328600 0.000019 0.000005 11.301500 24.972700 -25.331000 22.291600 -0.000001 0.000005 -3.335140 5.097940 5.160660 12.994500 -0.242716 -4.980390 88.285900 5.243670 -71.869500 -5.348130 -0.000001 -0.000004 -60.968000 16.579300 -11.035400 -24.328900 0.000322 -0.000009 0.957939 4.464590 -12.124600 -22.291500 -0.000108 -0.000004 -12.494300 5.246630 1.522560 -2.192480 -6.469440 -0.000000 -170.381000 -8.157920 0.013141 39.081100 -0.000007 -0.000012 -0.000846 0.004380 10.923000 40.985400 -0.000006 -0.000013 -6.010400 19.503600 -65.421500 11.754300 -0.000000 0.000003 -0.000469 0.175179 -9.471210 -2.192510 6.469440 -0.000001 178.924000 8.782190 -178.578000 -39.081100 -0.002282 -0.040193 0.008892 -0.029625 10.619400 -40.985400 0.000008 0.000006 -5.819420 5.555800 -67.328500 -11.754300 -0.000006 -0.000006 -0.009137 0.264743 -5.819300
0.000000 0.000000 0.000000 0.000000 0.000000 -0.000000 -3.121600 93.352300 0.862003 88.195500 3.257880 -1.115750 15.735700 0.000005 -0.000001 37.552200 87.257300 -34.359400 8.984550 -0.406207 -0.000000 -4.291440 -4.681100 6.216760 16.377300 -0.000001 -0.000001 -1.265620 1.783200 -3.159520 6.456720 -0.000001 -0.000000 0.632803 3.421500 -9.903690 12.994200 -0.242716 4.980390 -92.702800 9.277750 -73.679200 5.348090 -0.000007 -0.000001 -74.640500 24.309300 5.794280 24.328600 0.000019 0.000005 11.496200 25.305100 -25.445800 22.291600 -0.000001 0.000005 -3.469750 5.112550 4.824590 12.994500 -0.242716 -4.980390 88.266500 5.070880 -71.098600 -5.348130 -0.000001 -0.000004 -60.377900 4.241510 -11.764000 -24.328900 0.000322 -0.000009 -0.155288 -0.933881 -9.442360 -22.291500 -0.000108 -0.000004 -13.375300 5.226790 2.040260 -2.192480 -6.469440 -0.000000 -170.430000 -8.843710 0.236386 39.081100 -0.000007 -0.000012 -0.009798 0.063793 8.731310 40.985400 -0.000006 -0.000013 -8.823010 20.521200 -62.793200 11.754300 -0.000000 0.000003 -0.000249 0.171723 -9.611610 -2.192510 6.469440 -0.000001 178.469000 9.433680 -178.059000 -39.081100 -0.002282 -0.040193 0.000935 0.016850 8.128170 -40.985400 0.000008 0.000006 -7.872270 6.255070 -65.436700 -11.754300 -0.000006 -0.000006 -0.008607 0.260583 -5.989310
0.000000 0.000000 0.000000 0.000000 0.000000 -0.000000 -2.892980 93.512400 0.895130 88.300000 3.282720 -2.197980 15.735700 0.000005 -0.000001 30.075400 87.605600 -27.360200 8.984550 -0.406207 -0.000000 -5.263350 -4.447700 5.233110 16.377300 -0.000001 -0.000001 -1.450260 1.574890 -3.479910 6.456720 -0.000001 -0.000000 0.804286 2.992050 -9.902490 12.994200 -0.242716 4.980390 -92.680900 9.146160 -73.585900 5.348090 -0.000007 -0.000001 -73.025700 23.339000 5.947760 24.328600 0.000019 0.000005 11.519900 25.549100 -25.294100 22.291600 -0.000001 0.000005 -3.068610 5.107900 4.931610 12.994500 -0.242716 -4.980390 88.403100 4.530400 -70.560000 -5.348130 -0.000001 -0.000004 -58.301800 -6.612260 -13.107400 -24.328900 0.000322 -0.000009 -0.279003 -2.653590 -5.971280 -22.291500 -0.000108 -0.000004 -13.733700 5.193910 2.870620 -2.192480 -6.469440 -0.000000 -170.585000 -8.995420 0.810777 39.081100 -0.000007 -0.000012 -0.000882 0.009638 5.222190 40.985400 -0.000006 -0.000013 -11.991800 20.608100 -59.477600 11.754300 -0.000000 0.000003 0.000061 0.166587 -9.820200 -2.192510 6.469440 -0.000001 178.201000 9.995780 -178.221000 -39.081100 -0.002282 -0.040193 0.003502 -0.001434 6.231830 -40.985400 0.000008 0.000006 -9.241680 6.834670 -63.851100 -11.754300 -0.000006 -0.000006 -0.008931 0.263137 -5.884940
